<?xml version="1.0" encoding="utf-8"?>
<!-- Generator: Adobe Illustrator 24.3.0, SVG Export Plug-In . SVG Version: 6.00 Build 0)  -->
<svg version="1.1" id="圖層_1" xmlns="http://www.w3.org/2000/svg" xmlns:xlink="http://www.w3.org/1999/xlink" x="0px" y="0px"
	 viewBox="0 0 411.1 135.8" style="enable-background:new 0 0 411.1 135.8;" xml:space="preserve">
<style type="text/css">
	.st0{clip-path:url(#SVGID_2_);fill:#004098;}
	.st1{clip-path:url(#SVGID_4_);fill:#004098;}
	.st2{clip-path:url(#SVGID_6_);fill:#004098;}
	.st3{clip-path:url(#SVGID_8_);fill:#004098;}
	.st4{clip-path:url(#SVGID_10_);fill:#E60012;}
	.st5{clip-path:url(#SVGID_12_);fill:#E60012;}
	.st6{clip-path:url(#SVGID_14_);fill:#E60012;}
	.st7{clip-path:url(#SVGID_16_);fill:#E60012;}
	.st8{clip-path:url(#SVGID_18_);fill:#E60012;}
	.st9{clip-path:url(#SVGID_20_);fill:#E60012;}
	.st10{clip-path:url(#SVGID_22_);fill:#E60012;}
	.st11{clip-path:url(#SVGID_24_);fill:#E60012;}
	.st12{fill:none;stroke:#000000;stroke-width:0.25;}
	.st13{clip-path:url(#SVGID_26_);fill:none;stroke:#000000;stroke-width:0.25;}
</style>
<g>
	<path d="M333.3,45.3c1.3,1.2,2,1.9,2,2.2s-0.1,0.4-0.3,0.4h-12.2v2.2h5.7c0.8-0.8,1.3-1.2,1.7-1.2s0.8,0.3,1.7,0.9
		c0.8,0.6,1,0.9,1,1.2c0,0.1-0.1,0.4-0.4,0.6c-0.4,0.3-0.8,0.6-0.8,0.6v1.7c0.1,0.6,0.1,1,0.1,1.3c0,0.6-0.4,1-1.5,1
		c-0.8,0-1.2-0.1-1.2-0.6v-0.4h-6.2v2.5h6.4c0.9-0.9,1.5-1.3,1.8-1.3c0.1,0,0.8,0.3,1.5,0.9c0.8,0.6,1.2,1,1.2,1.3
		c0,0.1-0.1,0.3-0.4,0.4c-0.1,0.1-0.4,0.3-0.9,0.6v1.5h0.6c0.8-1.2,1.2-1.9,1.3-1.9c0.1,0,0.4,0.3,0.9,1c0.4,0.6,0.8,1,0.8,1.3
		c0,0.3-0.1,0.4-0.4,0.4h-3.1v2.2c0.1,1,0.1,2,0.1,2.8c0,0.6-0.6,0.9-1.9,0.9c-0.6,0-0.9-0.1-0.9-0.6v-1.2h-6.8v2.2
		c0,2.7-1.3,4-3.8,4c-0.4,0-0.6-0.1-0.6-0.6c-0.1-0.6-0.4-1-1.2-1.7c-0.4-0.3-1.2-0.6-2-0.8c0-0.1,0-0.3,0-0.4c0.8,0,2.2,0,4.5,0
		c0.3,0,0.6-0.3,0.6-0.9v-2c-4.2,0-7.6,0.1-10.1,0.3c-0.3-0.4-0.4-0.9-0.4-1.3c1.3,0.1,4.8,0.1,10.5,0.1V62h-8
		c-3.1,0-4.7,0.1-4.7,0.3c-0.1-0.4-0.4-0.9-0.6-1.7c0.4,0.1,2,0.3,4.9,0.4h8.4v-2.8h-1.5c-3.7,0-6.4,0.1-8.2,0.3
		c-0.1-0.4-0.3-0.8-0.4-1.3c1.3,0.1,4.5,0.3,9.2,0.3h0.8v-2.5h-5.9v0.4c-0.1,0.6-0.8,0.9-1.8,0.9c-0.6,0-1-0.1-1.2-0.3
		c0-1.2,0-2.2,0.1-3.3v-2.2c0-0.9-0.1-1.5-0.3-1.7l2.8,1h6.2v-2.2h-5c-3.7,0-5.9,0.1-6.8,0.4c-0.1-0.6-0.4-1-0.8-1.7
		c1.5,0.1,4.2,0.3,8,0.3h4.9c0-1.3-0.1-2.5-0.3-3.3c2.8,0.4,4.3,0.9,4.7,1.3c0,0.1-0.1,0.3-0.3,0.3c-0.1,0.1-0.4,0.1-0.9,0.4
		c-0.3,0.1-0.4,0.3-0.4,0.4v0.8h7.5c0.9-1.2,1.7-1.9,2-2.2c0.1,0,0.1,0,0.3,0C332.8,44.9,333.2,45.1,333.3,45.3z M319.9,50.9H314
		v3.4h5.9V50.9z M328.9,50.9h-6.2v3.4h6.2V50.9z M322.7,61.4h6.8v-2.8h-6.8V61.4z M322.7,65.6c0.1,0,0.4,0,0.6,0h6.2v-3.3h-6.8v3.3
		H322.7z"/>
	<path d="M365.7,49c1.2,1,1.9,1.8,1.9,1.9c0,0.3-0.1,0.4-0.3,0.4h-9.5c1.9,0.6,2.9,1.2,2.9,1.5s-0.6,0.4-1.8,0.6
		c-0.6,0.9-1.5,1.7-2.7,2.4h5.8c0.9-1,1.5-1.8,1.9-1.9h0.1c0.1,0.1,0.4,0.3,0.8,0.4c1.2,1,1.8,1.8,1.8,1.9c0,0.3-0.1,0.4-0.3,0.4
		h-11.8v2.5h5c0.8-0.9,1.3-1.5,1.8-1.8h0.1c0.1,0.1,0.4,0.3,0.6,0.4c1,0.9,1.7,1.7,1.7,1.8c0,0.3-0.1,0.4-0.3,0.4h-9v2.7h8.2
		c0.9-1,1.5-1.8,1.9-1.9c0,0,0.1,0,0.3,0c0.1,0.1,0.4,0.3,0.8,0.4c1.2,1,1.9,1.8,1.9,1.9c0,0.3-0.1,0.4-0.3,0.4H356
		c1.7,1.5,3.3,2.4,5,2.9c1.9,0.8,4.2,1.2,6.7,1.2c0,0.1,0,0.4,0,0.6c-0.1,0-0.4,0.1-0.8,0.4c-0.1,0.1-0.3,0.6-0.6,1.2
		c-0.1,0.4-0.3,0.6-0.6,0.6c-1,0-2.9-0.8-5.5-2.2c-2.2-1.2-3.8-2.8-5-4.9h-0.4v4.3c0,1.2,0.1,2.7,0.1,4.5c0,0.4-0.6,0.6-1.7,0.8
		c-0.9,0-1.3-0.1-1.3-0.4c0-0.9,0.1-2.5,0.1-4.9v-1.7c-3.1,2.2-7.3,4-12.5,5.5c-0.1-0.3-0.3-0.4-0.4-0.6c4.9-2,8.5-4.2,10.4-6.4
		c0.1-0.1,0.3-0.3,0.3-0.4h-2.7c-3.7,0-5.9,0.1-6.8,0.4c-0.1-0.6-0.4-1-0.8-1.7c1.5,0.1,4.2,0.3,8.1,0.3h4.5v-2.7h-3.3
		c-2.8,0-4.5,0.1-5.3,0.4c-0.1-0.6-0.4-1-0.8-1.7c1,0.1,3.1,0.3,5.8,0.3h3.3v-2.5h-4.2c-3.4,0-5.5,0.1-6.4,0.3
		c-0.1-0.6-0.4-1-0.8-1.7c1.5,0.1,3.8,0.3,7.3,0.3h0.9c-0.3-0.3-0.4-0.6-0.6-1.2c-0.3-0.9-0.6-1.5-0.8-1.9c-0.2-0.4-0.6-0.8-0.9-1.2
		c-3.4,0-5.5,0.1-6.4,0.3c-0.1-0.6-0.4-1-0.8-1.7c1.5,0.1,4.2,0.3,8.1,0.3h1.2v-3.4c0-1.3,0-2.4-0.1-3.1c2.8,0.4,4.2,0.8,4.2,1
		s-0.1,0.4-0.4,0.4c-0.6,0.3-0.9,0.4-0.9,0.6v4.5h2.9v-3.4c0-1.3,0-2.4-0.1-3.1c2.8,0.4,4.2,0.8,4.2,1s-0.1,0.4-0.4,0.4
		c-0.6,0.3-0.9,0.4-0.9,0.6v4.5h1.5c1-1.5,1.8-3.3,2-5.4c1.3,0.4,2.2,0.8,2.9,1c0.6,0.3,1,0.4,1,0.6s-0.1,0.3-0.6,0.4
		c-0.6,0.1-0.9,0.3-1,0.3c-0.6,1.2-1.7,2.2-3.3,2.9h3.4c0.9-1,1.5-1.8,1.9-1.9c0,0,0.1,0,0.3,0C365.3,48.6,365.4,48.8,365.7,49z
		 M345,45.8c1.3,0.8,2,1.5,2,2.5c0,0.8-0.1,1.2-0.6,1.5c-0.1,0.1-0.6,0.3-1,0.3c-0.8,0-1.2-0.4-1.3-1.5c-0.3-0.9-0.6-1.5-0.9-1.9
		c-0.1-0.4-0.6-0.8-0.9-1.2c0-0.1,0.1-0.1,0.3-0.3C343.4,45.3,344.3,45.4,345,45.8z M355.2,55.8c0.9-1.7,1.5-3.1,1.7-4.3h-8.5
		c0.4,0.1,0.8,0.3,1,0.4c1.2,0.8,1.9,1.5,1.9,2.5c0,0.8-0.1,1.2-0.6,1.5l0,0h4.5V55.8L355.2,55.8z"/>
	<path d="M397.1,55.1c1,0.9,1.7,1.7,1.7,1.8c0,0.3-0.1,0.4-0.3,0.4H393v5.4h2.2c0.9-1,1.5-1.8,1.9-1.9h0.1c0.1,0.1,0.4,0.3,0.8,0.4
		c1.2,1,1.8,1.8,1.8,2c0,0.3-0.1,0.4-0.3,0.4h-6.6v3.6c0,1.3,0.1,2.9,0.1,4.9c0,0.4-0.6,0.8-1.8,0.8c-0.9,0-1.5-0.1-1.5-0.4
		c0-1,0.1-2.8,0.1-5.4v-3.4h-1.2c-1.9,0-3.1,0.1-3.7,0.4c-0.1-0.4-0.3-0.8-0.4-1c-0.1,0-0.1,0.1-0.1,0.1c-0.4,0.4-0.8,0.6-0.9,0.8
		v4.3c0.1,1.7,0.1,2.7,0.1,3.3c0,0.8-0.6,1-1.7,1c-0.9,0-1.3-0.1-1.3-0.6v-1.5h-4c0,0.4,0,1,0,1.5c-0.1,0.6-0.9,0.9-2,0.9
		c-0.6,0-0.9-0.1-0.9-0.6c0-1.7,0-3.6,0-5.5v-1.6c-0.9,1.2-2,1.9-3.3,2.5c0,0,0-0.1-0.1-0.4c2-2,3.3-5.4,4-9.7
		c-0.9,0-1.8,0.1-2.4,0.1c-0.3-0.4-0.4-1-0.4-1.3c0.4,0,1.5,0.1,2.9,0.1c0.1-1.5,0.3-3.1,0.3-4.8c-2.5,0-3.8,0.1-3.8,0.3
		c-0.1-0.4-0.4-0.9-0.6-1.7c0.4,0.1,1.9,0.3,4.7,0.4v-0.9c0-0.8,0-2,0-3.7h-0.4c-1.3,0-2,0.1-2.4,0.3c-0.3-0.4-0.4-0.9-0.8-1.7
		c0.4,0.3,1.3,0.4,2.7,0.4h5.9c0.9-0.9,1.5-1.2,1.8-1.2c0.4,0.1,0.9,0.4,1.3,0.9c0.8,0.6,1,0.9,1,1.2c0,0.3-0.4,0.6-1.2,1.2v3.3
		c0.8-1,1.2-1.7,1.3-1.7s0.4,0.3,1,1c0.1,0.3,0.3,0.4,0.4,0.6h5.5c1.3-2.5,2-4.9,2.2-6.8c2.7,0.9,4,1.3,4,1.8c0,0.3-0.6,0.4-1.8,0.6
		c-0.8,1.7-1.9,3.1-3.7,4.7h2.7c0.8-1,1.3-1.7,1.7-1.8h0.1c0.3,0,0.6,0.3,1.2,0.9c0.8,0.8,1.2,1.2,1.2,1.5s-0.1,0.4-0.1,0.4h-5.8
		v4.8h1.5c0.8-0.9,1.3-1.5,1.8-1.8h0.1C396.7,54.8,396.9,54.9,397.1,55.1z M386.7,51.7c0,0.1-0.1,0.3-0.3,0.3h-2.8v6.6
		c0,0.4-0.4,0.6-1.3,0.6c-0.8,0-1.2-0.1-1.3-0.3v-1.3h-2.6c-0.4,0-0.8,0-1,0c-0.3,1.5-0.6,2.8-1,3.8l0.4,0.3h3.7
		c0.9-1,1.3-1.5,1.8-1.5c0.3,0,0.9,0.3,1.7,0.9c0.8,0.6,1.2,1,1.2,1.3l0,0c0.8,0.1,1.8,0.1,3.1,0.1h1.9v-5.4h-0.9
		c-1.8,0-2.8,0.1-3.3,0.4c-0.1-0.6-0.4-1-0.8-1.7c0.6,0.1,1.7,0.3,3.3,0.3h1.7v-4.8h-3.4L386.7,51.7L386.7,51.7z M376.7,66.7
		c0,0.9,0,1.9,0,2.8h4v-7.1h-4.2v4.2L376.7,66.7L376.7,66.7z M377.5,56.7c0.4,0,0.8,0,1.2,0h2.2v-4.8h-2.9
		C378,53.6,377.6,55.2,377.5,56.7z M378,49.5c0,0.4,0,1,0,1.5h2.9v-4.8h-2.8C378.1,47.2,378,48.2,378,49.5z M388.8,45.1
		c1.3,0.9,1.9,1.9,1.9,3.3c0,0.8-0.1,1.2-0.6,1.5c-0.3,0.1-0.6,0.3-1,0.3c-0.6,0-1-0.6-1.3-1.9c-0.3-1-0.6-1.9-0.9-2.5
		c-0.3-0.4-0.6-0.8-0.9-1.2c0,0,0.1-0.1,0.3-0.3C387.3,44.4,388.2,44.7,388.8,45.1z"/>
</g>
<g>
	<g>
		<g>
			<g>
				<defs>
					<rect id="SVGID_1_" x="10" y="16.4" width="415" height="100"/>
				</defs>
				<clipPath id="SVGID_2_">
					<use xlink:href="#SVGID_1_"  style="overflow:visible;"/>
				</clipPath>
				<path class="st0" d="M11.6,43.2c0,0,0.3,1,0.8,1.7l0.8,1.2v0.8c0,0,0.4,0.9,0.8,1.2c0,0,0.6,1.3,2.7,1c0,0,1.3-0.4,1.3-1.5
					c0,0,0.3-0.3,0.3-1c0,0,0.4-0.6,0.4-0.9c0,0,0.4-0.4-0.9-1.2l-0.4-0.4c0,0-0.9-0.8-2.9-1.5c0,0-1.5-0.6-2.2,0
					C12,42.2,11.6,42.5,11.6,43.2"/>
			</g>
		</g>
	</g>
	<g>
		<g>
			<g>
				<defs>
					<rect id="SVGID_3_" x="10" y="16.4" width="415" height="100"/>
				</defs>
				<clipPath id="SVGID_4_">
					<use xlink:href="#SVGID_3_"  style="overflow:visible;"/>
				</clipPath>
				<path class="st1" d="M21.4,40.3v0.4c0,0-0.3,0.6-0.1,2c0,0,0.1,1.5,0.6,2.2c0,0,0.1,0.6,0.1,0.9c0,0,0.1,1,1.7,0.9
					c0,0,1.2,0,2.7-1c0,0,2.4-0.8,4-1.7c0,0,0.9-0.4,1.7-0.8c0,0,2.5-1,3.4-1.3c0,0,2.4-1,5.7-1.7c0,0,2.9-0.4,7.7,0.1
					c0,0,2.2,0.1,4.5,0c0,0,0.8,0,0.9-0.9c0,0,0-0.3,0.1-0.4c0,0,0.3-1.2-1.5-1.8c0,0-1-0.4-3.7-0.8c0,0-1.8-0.6-3.8,0
					c0,0-2,0.3-2.8,0.1c0,0-1,0-0.9-0.8v-2.2c0,0-0.1-0.3,2.5-1.2c0,0,1.2-0.8,2.4-2.5c0,0,0.6-1-0.1-1.7l-0.6-1l-2,0.1
					c0,0-2.5,0.1-2.7-1c0,0-0.1,0.1,0-1.8l0.1-1.9c0,0,0.3-2.5,0.1-3.3c0,0-0.4-2.4-4.2-3.1c0,0-2.5-0.8-3.7,0c0,0-1.3,0.3-0.8,1.7
					l0.3,3.4c0,0,0,0.4,0.3,0.8c0,0,0.9,2.7,0.9,4.3c0,0,0.1,1.2-0.9,1.5c0,0-1.8,0.8-3.8,0.9l-2.9,0.1c0,0-2.4-0.1-2.7,1
					c0,0-0.1,0.6,0,1.3l0.1,2.2c0,0,0,0.3,0.6,0.4l1,0.8c0,0,0.3,0.1,0.9,0c0,0,3.4,0.1,5.3-0.3c0,0,1.9-0.3,3.1-0.4
					c0,0,0.8-0.1,0.6,1.7c0,0-0.6,2.2-2,2.8c0,0-1.9,1-6.2,1.9c0,0-1.2,0.3-2,0.1l-2-0.1C23.2,40.5,22,40,21.4,40.3"/>
			</g>
		</g>
	</g>
	<g>
		<g>
			<g>
				<defs>
					<rect id="SVGID_5_" x="10" y="16.4" width="415" height="100"/>
				</defs>
				<clipPath id="SVGID_6_">
					<use xlink:href="#SVGID_5_"  style="overflow:visible;"/>
				</clipPath>
				<path class="st2" d="M34.2,48.5c0,0,0.6-0.6,1.2-0.9l2.2-0.3c0,0,0.6,0,0.9-0.3c0,0,0.4-0.3,1-0.1c0,0,0.4-0.1,0.8-0.3
					c0,0,0.9-0.4,1.8,0.6c0,0,0.4,0.4-1.2,1.3c0,0-0.4,1-1.5,1.5l-0.4,0.4l-1,0.6L37.7,51h-0.3c0,0-1,0.6-1.8,0.6
					c0,0-0.8,0.1-0.9-0.4l-0.3-0.6v-0.4C34.4,50.1,33.7,49.3,34.2,48.5 M40,59.8l0.1-1.7c0,0,0.3-0.6,0.8-0.9c0,0,0.9-1,1.7-1.3
					l0.4-0.6c0,0,0.6-1,2.4-1l0.8,0.1c0,0,0.3,0.1,0.1,0.9c0,0-0.1,1-0.8,1.3c0,0-0.4,0.9-1.2,0.9c0,0-0.6,0.8-1.2,0.8
					c0,0-1,0.4-1.2,0.8l-1.1,0.7C40.6,60,40,60.3,40,59.8 M69,79.6c-0.3-0.8-1.2-0.6-1.2-0.6l-0.9-0.4H65l-0.8-0.1
					c-1.3-0.4-4.8-0.1-4.8-0.1c-2.5,0-6.2-0.1-6.2-0.1c-1.7,0.1-3.8-0.4-3.8-0.4c-3.3-0.9-4.3-0.8-5.4-0.9c-1-0.1-0.8,0.1-2.4-0.4
					c-1.6-0.6-3.9-0.9-4.7-0.9s-1.5-0.3-1.5-0.3c-1.3-0.6-4.9-1.7-4.9-1.7L28.6,73c-1.9-0.6-2.2-1-2.2-1c-0.8-0.4-0.4-1.2-0.4-1.2
					c0.3-0.6,1.2-0.9,1.2-0.9l1.5-1c0.8-0.1,1.7-1.3,1.7-1.3l1.3-1c1-0.4,1,0.8,1,0.8v3.3c0.1,0.3,0.3,1,0.3,1
					c0.1,0.3,1.5,0.1,1.5,0.1l0.3-0.1c0.8,0.3,1.2,0,1.2,0c1-0.4,1.3-1.5,1.3-1.5c0.8-0.4,0.9-1.9,0.9-1.9l0.8-2c0-1,1-0.9,1-0.9
					c2.4,0.3,4.7,1.8,4.7,1.8c0.4,0.1,0.9,0.8,0.9,0.8h0.9c1.3,0.9,2,0.3,2,0.3c0.6,0.1,1.7-0.1,1.7-0.1c1.8-0.3,2.7-1,2.7-1
					c2.4-0.8,2.2-1.2,2.2-1.2c0.8-0.8,0-1,0-1L54,64c-1,0-2.4-0.1-2.4-0.1c-0.6-0.3-2.9-0.6-2.9-0.6l-0.8-0.1
					c-0.8-0.1-3.1-0.6-3.1-0.6c-0.8-0.1-0.1-0.6-0.1-0.6l2.7-0.9c3.1-1,4-1.7,4-1.7c0.6-0.3,0.4-1.5,0.4-1.5c-0.6-0.9-0.8-2-0.8-2
					c0-2.2-0.6-2-0.6-2h-1h-0.4c-0.4,0-1.5-0.4-1.5-0.4c-0.9-0.6-1-2-1-2c-0.4-1.3,0.3-2,0.3-2c0.8-0.9,2.5-3.3,2.5-3.3
					c0.9-1-0.8-1.9-0.8-1.9l-0.4-0.8c-0.6-0.4-0.8-0.1-0.8-0.1l-0.6,0.3c-0.4,0-3.1,0.1-3.1,0.1c-6.6,0.9-8,1.8-8,1.8
					c-2.8,0.9-4,2.5-4,2.5c-0.8,0.4-1.3,1.2-1.3,1.2C29.5,50.4,30,53,30,53c-0.1,0.1-0.1,1.6-0.1,1.6c-0.1,0.3-0.9,0.8-0.9,0.8
					c-0.1,1.2,0.8,2.5,0.8,2.5l0.4,1.5c-0.1,0.4,0.3,1,0.3,1c0.1,0.8-0.3,1.3-0.3,1.3C29.7,62,28.7,63,28.7,63
					c-1.8,1.2-2.7,3.3-2.7,3.3c-0.9,0.6-1.5,1.8-1.5,1.8v0.3L24,69c-0.8,1.5-2.5,1-2.5,1c-0.7-0.3-0.7-0.9-0.7-0.9v-2.5
					c0.1-2.9-0.4-3.7-0.4-3.7c-0.1-0.8-0.3-2.8-0.3-2.8c0.3-0.8,0-2.5,0-2.5c-0.3-0.3-0.4-2-0.4-2c-1.8-2.4-3.7-2.2-3.7-2.2
					c-0.1,0.1,0.1,1.9,0.1,1.9l0.3,0.9c0,0.4,0.1,1.7,0.1,1.7c0.3,1,0,2.9,0,2.9c-0.1,0.9-0.1,1.8-0.1,1.8v1.9
					c-0.1,1.2-0.4,4.2-0.4,4.2c-0.3,0.4-0.4,0.9-0.4,0.9c-0.1,1.2-0.1,3.7-0.1,3.7c-0.1,0.6,0.3,1.7,0.3,1.7c1,0.8,1.9,0.9,1.9,0.9
					h4c0.9,0,2.9,0.6,2.9,0.6c2.7,0.6,5.4,1.7,5.4,1.7c2.4,1.8,2.8,1.8,2.8,1.8c0.8,0.6,2.2,1.2,2.2,1.2l0.8,0.4l0.8,0.3
					c0.3,0.4,2.5,0.8,2.5,0.8l1.3,0.6c0.8,0.1,3.7,2,3.7,2h1.5c0-0.1,1.2-0.8,1.2-0.8l0.3-0.1c0.4-0.4,2-1,2-1
					c2.4-0.3,2.7-0.6,2.7-0.6l2.9-0.4l6.2-0.1c2.2,0,3.8,0.4,3.8,0.4c0.4,0.6,1.2,0.6,1.2,0.6c0.8,0,0.9-0.9,0.9-0.9
					c0.3-0.1,0.3-0.4,0.3-0.4c0.3-0.3,1.2-1.3,1.2-1.3C69.5,80,69,79.6,69,79.6"/>
			</g>
		</g>
	</g>
	<g>
		<g>
			<g>
				<defs>
					<rect id="SVGID_7_" x="10" y="16.4" width="415" height="100"/>
				</defs>
				<clipPath id="SVGID_8_">
					<use xlink:href="#SVGID_7_"  style="overflow:visible;"/>
				</clipPath>
				<path class="st3" d="M80.1,52.9c0,0-2.8,0.4-3.3,0.4h-0.4c0,0,0-0.3-0.3-0.3c0,0,0.3-0.6,0.1-0.9l0.1-1.3c0,0,0.1-0.6,1.3-0.9
					c0,0,1.2,0,1.7-0.4c0,0,1.9-0.4,2.4-1.2c0,0,1.2-0.3,1.3-0.8c0,0,0.4-0.3,0.8-0.9c0,0,0.6-0.4,0.6-0.9c0,0,0.3-0.8,0-1
					c0,0,0.1-0.4-0.6-0.4c0,0-1-0.4-2.4,0.1c0,0-2.4,0.6-2.8,0.8c0,0-1.5,0.3-1.9,0c0,0-0.4-0.1-0.3-0.4c0,0-0.3-1.7,0-2
					c0,0,0.1-0.8,1.2-0.6l1,0.1c0,0,1.7,0.4,1.9,0.4c0,0-0.3,0.1,1,0c0,0,0.9,0.1,1.5,0.4c0,0,0.9,0.4,1.8-0.1l0.9-0.6
					c0,0,0.3-0.1,0.4-0.4c0,0,0.3-0.4,0.4-0.4c0,0,0.1-1.5-0.6-1.9c0,0-1-0.6-1.5-1c0,0-0.8-0.4-1.7-0.8c0,0-0.8-0.1-1-0.4
					c0,0-0.3-0.3,0.1-0.4c0,0,0.6-0.1,1.3-0.4c0,0,1-0.6,2.5-0.1l0.8,0.3c0,0,0.9,0.1,1,1.8c0,0,0.3,3.7,0.1,5c0,0,0,3.1-0.4,5.3
					l-0.1,1.3c0,0-0.6,0.8-0.6,1.2c0,0-0.3,0.4-1.5,0.4C85.2,52.1,81.9,52.4,80.1,52.9 M76.7,59.1c0,0,0-0.6,0.9-0.8
					c0,0,0.3-0.3,1.2-0.1h0.3c0,0,0.1,0.3-0.1,0.3c0,0-0.1,0.3-0.8,0.8c0,0-0.4,0.4-0.6,0.6c0,0-0.8,0.4-0.8,0
					C76.7,60,76.5,59.8,76.7,59.1 M116.7,59.5c0.1-1.9-0.4-1.9-0.4-1.9c-0.4-0.1-1.2-0.4-1.2-0.4c-0.6-0.6-1.8-1.2-1.8-1.2
					c-0.4-0.4-1.9-1.5-1.9-1.5c-0.3-0.4-0.9-1-0.9-1c-0.8-1.2-1.7-1.7-1.7-1.7c-1.2-0.6-1.2,1-1.2,1c0,0.6,0.4,2.9,0.4,2.9l0.1,4.3
					c-0.1,0.9-1.2,2.4-1.2,2.4c-0.3,0.1-1.2,1-1.2,1l-0.6,0.4c-0.6,0.4-1.7,1.3-1.7,1.3c-0.8,0.8-3.1,1.7-3.1,1.7
					c-1.3,0.4-2.5,0.9-2.5,0.9C97.4,67.7,96,68,96,68c-0.9,0-3.7,0.1-3.7,0.1c-2.7,0.1-4.5-0.9-4.5-0.9c-1-0.6-2.2-1.3-2.2-1.3
					c-0.8-0.4-1.5-1.3-1.5-1.3c-0.6-0.8-1-1.9-1-1.9l0.4-0.9c0.3-0.1,0.6-0.6,0.6-0.6c0.3-0.6,1.2-0.9,1.2-0.9
					c0.4-0.4,1.5,0.3,1.5,0.3c0.3,0.3,1,0.4,1,0.4l0.3,0.1c0.9,0.4,1.5,0.1,1.5,0.1c0.4-0.1,0.8-0.6,0.8-0.6
					c0.6-0.3,0.9-1.7,0.9-1.7c0.3-1,0.6-2.7,0.6-2.7c0.4-0.6,0.4-1,0.4-1c0-0.9,0.4-1.9,0.4-1.9l0.9-3.3c0.6-2.9,0.8-5,0.8-5
					c0.4-3.3,0.6-6.7,0.6-6.7c0.1-0.4,0.3-1.5,0.3-1.5c0.1-0.4,0.1-0.9,0.1-0.9c-0.3-1.9-1.5-2-1.5-2h-0.1c-2.2-1-4.7-1-4.7-1
					c-3.1-0.3-4,0.4-4,0.4c-0.8,0.3-2.9,1.3-2.9,1.3c-0.9,0.1-1.9,0.9-1.9,0.9c-1.7,0.4-4,1.8-4,1.8c-0.9,0.6-1.9,0.4-1.9,0.4
					c-1-0.3-2.5-1.9-2.5-1.9c-0.3-0.4-1.2-0.3-1.2-0.3c-0.9,0.9-0.9,2.4-0.9,2.4c0,0.1-0.1,1.2-0.1,1.2c-0.3,0.9-0.1,2.9-0.1,2.9
					c-0.3,1,0,4.3,0,4.3c0-0.1,0,4,0,4V51v0.8c-0.3,0.7-0.3,2.6-0.3,2.6c0,0.9,0,2.8,0,2.8C69,58.4,70,60.5,70,60.5
					c0.8,1.7,2.2,2,2.2,2l0.4,0.3c0.4,0.1,0.3,0.8,0.3,0.8c-0.1,0.1-1,1.2-1,1.2c-0.1,0-0.9,0.4-0.9,0.4c-0.3,0-0.9,0.4-0.9,0.4
					c-0.9,0.4-2,0.4-2,0.4c-0.4-0.1-1.8,0.1-1.8,0.1c-1.8,0.4-1.8,0.8-1.8,0.8c-0.3,0.1-0.1,0.6-0.1,0.6c0,0.4,1,1.5,1,1.5
					c0.4,0,1.2,0.6,1.2,0.6c0.1,0.1,1.2,1,1.2,1c1.3,0.9,2.8,0.9,2.8,0.9c1.3,0.3,3.1-1.3,3.1-1.3c1.7-1.2,1.9-1.7,1.9-1.7l0.8-0.9
					c0.4-0.8,1.5-1.3,1.5-1.3c1.2-1.2,2,0.1,2,0.1c0.6,0.6,2.4,2.4,2.4,2.4c0.8,0.9,1.9,1.7,1.9,1.7l0.9,0.4
					c0.9,0.6,2.8,1.2,2.8,1.2c1,0.6,5.9,0.4,5.9,0.4c3.1,0.3,5.7-0.4,5.7-0.4c1.8-0.3,3.7-0.9,3.7-0.9c1.3-0.4,3.3-1.5,3.3-1.5
					c1.2-0.4,2.4-1.2,2.4-1.2l1.5-1.2c2.8-1.8,4.5-4.2,4.5-4.2C116.8,61.9,116.7,59.5,116.7,59.5"/>
			</g>
		</g>
	</g>
</g>
<g>
	<path d="M85.3,101.4c0,0.8,0.1,1,0.4,1.2v0.1c-0.1,0-0.4,0-0.9,0.1c-0.9,0.3-2,0.4-2.9,0.4c-2,0-3.8-0.6-5.3-1.9
		c-1-1-1.5-2.4-1.5-3.8s0.4-2.8,1.5-4c1.2-1.2,2.8-1.9,5.4-1.9c0.9,0,1.9,0.1,2,0.3c0.3,0,0.9,0.1,1,0.1c0,0.6,0.1,1.5,0.3,2.5
		c0,0.1-0.3,0.1-0.4,0c-0.4-1.8-1.8-2.4-3.4-2.4c-3.3,0-4.8,2.4-4.8,4.9c0,3.3,1.7,5.8,5,5.8c1,0,1.7-0.1,1.9-0.4
		c0.1-0.1,0.1-0.4,0.1-0.9v-0.8c0-1.5,0-1.5-1-1.7L82,99c-0.1,0-0.1-0.4,0-0.4c0.4,0,1.5,0,2.4,0c0.6,0,1.2,0,1.8,0
		c0.1,0,0.1,0.3,0,0.4h-0.3c-0.8,0.1-0.8,0.6-0.8,1.5C85.3,100.6,85.3,101.4,85.3,101.4z"/>
	<path d="M89.6,101.1c0,1.2,0,1.3,0.6,1.5h0.4c0.1,0.1,0.1,0.4,0,0.4c-0.6,0-1,0-1.7,0s-1.2,0-1.7,0c-0.1,0-0.1-0.3,0-0.4h0.4
		c0.6-0.1,0.6-0.3,0.6-1.5v-7.6c0-1,0-1-0.6-1.3L87.5,92c-0.1,0-0.1-0.3,0-0.3c0.4-0.1,1.2-0.4,1.8-0.8c0,0,0.1,0,0.1,0.1
		c0,0.4,0,1.3,0,2C89.6,93.3,89.6,101.1,89.6,101.1z"/>
	<path d="M98.8,99.7c0,2-1.5,3.6-3.6,3.6c-1.9,0-3.4-1.3-3.4-3.4s1.7-3.7,3.6-3.7C97.2,96.3,98.8,97.7,98.8,99.7z M95.2,96.8
		c-1.2,0-1.9,1-1.9,2.9c0,1.5,0.8,3.3,2.2,3.3c1.5,0,1.9-1.5,1.9-2.8C97.3,98.6,96.7,96.8,95.2,96.8z"/>
	<path d="M100.7,93.6c0-1,0-1-0.6-1.3l-0.1-0.1c-0.1,0-0.1-0.3,0-0.3c0.4-0.1,1.2-0.4,1.8-0.8c0,0,0.1,0,0.1,0.1c0,0.6,0,1.3,0,2
		v3.3c0,0.3,0,0.3,0.1,0.3c0.4-0.3,1.2-0.6,1.9-0.6c1.9,0,3.3,1.5,3.3,3.3c0,2.2-1.7,3.8-3.8,3.8c-0.6,0-1-0.1-1.5-0.1
		c-0.3-0.1-0.6-0.1-0.8-0.1s-0.3,0.1-0.3,0.3l0,0c0,0-0.1,0-0.1-0.1c0-0.3,0-0.6,0-1.5C100.7,101.8,100.7,93.6,100.7,93.6z
		 M101.9,100.9c0,0.6,0.1,1.2,0.4,1.5c0.3,0.3,0.8,0.6,1.3,0.6c1.7,0,2.2-1.3,2.2-2.8c0-1.8-0.9-3.1-2.5-3.1c-0.4,0-0.9,0.1-1.2,0.3
		c-0.1,0.1-0.1,0.3-0.1,0.9v2.7C102.1,100.9,101.9,100.9,101.9,100.9z"/>
	<path d="M111.9,99.6c0.3-0.1,0.3-0.3,0.3-0.4v-0.8c0-0.6-0.1-1.5-1.2-1.5c-0.4,0-1,0.3-1,0.8c0,0.3,0,0.4-0.1,0.6
		c-0.3,0.1-0.8,0.3-0.9,0.3s-0.3-0.1-0.3-0.3c0-0.9,1.9-2,3.1-2c1.2,0,1.8,0.8,1.8,1.9l-0.1,2.9c0,0.8,0.1,1.5,0.8,1.5
		c0.1,0,0.3,0,0.4-0.1c0.1,0,0.1-0.1,0.1-0.1l0.1,0.1c0,0.1-0.6,0.8-1.5,0.8c-0.4,0-0.8-0.1-1-0.6c0-0.1-0.1-0.3-0.3-0.3
		s-0.3,0.1-0.6,0.3c-0.4,0.1-0.8,0.4-1.2,0.4s-0.9-0.1-1.2-0.4c-0.3-0.3-0.6-0.8-0.6-1.2c0-0.6,0.3-1,1.3-1.5L111.9,99.6z
		 M110.8,102.5c0.3,0,0.9-0.3,1-0.4s0.1-0.4,0.1-0.8v-1c0-0.1,0-0.1-0.1-0.1s-0.4,0-0.8,0.1c-1,0.3-1.5,0.6-1.5,1.2
		C109.8,101.9,110,102.5,110.8,102.5z"/>
	<path d="M117.5,101.1c0,1.2,0,1.3,0.6,1.5h0.4c0.1,0.1,0.1,0.4,0,0.4c-0.6,0-1,0-1.7,0s-1.2,0-1.7,0c-0.1,0-0.1-0.3,0-0.4h0.4
		c0.6-0.1,0.6-0.3,0.6-1.5v-7.6c0-1,0-1-0.6-1.3l-0.1-0.1c-0.1,0-0.1-0.3,0-0.3c0.4-0.1,1.2-0.4,1.8-0.8c0,0,0.1,0,0.1,0.1
		c0,0.4,0,1.3,0,2C117.5,93.3,117.5,101.1,117.5,101.1z"/>
	<path d="M124.5,93.7c-0.4-0.9-0.6-1.3-1.3-1.3h-0.3c-0.1-0.1-0.1-0.3,0-0.4c0.4,0,1,0,1.8,0s1.3,0,2,0c0.1,0,0.1,0.3,0,0.4h-0.3
		c-0.6,0.1-0.8,0.1-0.8,0.3s0.3,1,0.9,2.4c0.8,1.9,1.5,3.8,2.4,5.8c0.6-1.2,1.2-2.8,1.7-3.7c0.4-1.2,1.3-3.1,1.7-3.7
		c0.1-0.3,0.1-0.6,0.1-0.6s-0.1-0.3-0.8-0.3h-0.3c-0.1-0.1-0.1-0.3,0-0.4c0.4,0,1.2,0,1.8,0c0.6,0,1,0,1.7,0c0.1,0,0.1,0.3,0,0.4
		h-0.3c-0.4,0-0.6,0.3-0.9,0.6c-0.4,0.8-1.2,2.2-1.9,3.8l-1,1.9c-0.8,1.5-1.5,3.6-1.8,4.5h-0.1c-0.1,0-0.1,0-0.3,0
		c-0.1-0.8-0.4-1.5-0.8-2.2L124.5,93.7z"/>
	<path d="M135.9,98.2c0-0.6,0-0.8-0.4-1l-0.1-0.1v-0.3c0.4-0.1,1.3-0.6,1.8-0.9c0.1,0,0.1,0,0.1,0.1c0,0.6,0,1.3,0,2v2.9
		c0,1.2,0,1.3,0.6,1.5h0.3c0.1,0.1,0.1,0.4,0,0.4c-0.4,0-1,0-1.7,0c-0.6,0-1.2,0-1.7,0c-0.1,0-0.1-0.3,0-0.4h0.3
		c0.6-0.1,0.6-0.3,0.6-1.5v-2.8L135.9,98.2L135.9,98.2z M137.3,92.7c0,0.6-0.4,0.9-0.9,0.9c-0.6,0-0.9-0.4-0.9-0.9
		c0-0.6,0.4-0.9,0.9-0.9C136.9,91.9,137.3,92.3,137.3,92.7z"/>
	<path d="M140.7,98.8c-0.4,0-0.4,0-0.4,0.4c0,1.7,1,3.1,2.8,3.1c0.6,0,1-0.1,1.5-0.9c0.1,0,0.3,0,0.3,0.1c-0.6,1.2-1.8,1.7-2.7,1.7
		c-1,0-1.9-0.4-2.5-1.2c-0.4-0.6-0.8-1.5-0.8-2.2c0-2,1.3-3.8,3.4-3.8c1.5,0,2.4,1,2.4,2c0,0.3,0,0.4,0,0.4c0,0.1-0.3,0.1-1,0.1
		h-2.9L140.7,98.8L140.7,98.8z M141.9,98.2c1.2,0,1.7,0,1.8-0.1c0,0,0.1-0.1,0.1-0.3c0-0.4-0.3-1-1.3-1c-1,0-1.9,0.9-1.9,1.5
		c0,0,0,0.1,0.1,0.1h1.2L141.9,98.2L141.9,98.2z"/>
	<path d="M146.7,98.1c-0.4-0.9-0.6-1.2-1-1.2h-0.3c-0.1-0.1-0.1-0.3,0-0.4c0.6,0,1,0,1.5,0c0.6,0,1,0,1.5,0c0.1,0,0.1,0.3,0,0.4
		h-0.4c-0.3,0-0.4,0.1-0.4,0.3s0.1,0.4,0.3,0.9l1,2.5c0.1,0.4,0.3,0.8,0.3,0.8s0.1-0.3,0.4-0.8l0.9-2c0.1-0.6,0.3-0.8,0.1-1
		c-0.1-0.4-0.4-0.4-0.8-0.6h-0.3c-0.1-0.1-0.1-0.3,0-0.4c0.4,0,0.9,0,1.3,0c0.6,0,1,0,1.7,0c0.1,0,0.1,0.3,0,0.4h-0.3
		c-0.8,0.1-0.6,0.1-0.4,0.8c0.1,0.7,1,2.7,1.3,3.1c0.1,0.3,0.1,0.4,0.1,0.4s0.1-0.1,0.3-0.4c0.1-0.4,0.9-2.2,1.2-2.9
		c0.1-0.4,0.1-0.6,0.1-0.8c0-0.1-0.1-0.1-0.3-0.1H154c-0.1-0.1-0.1-0.3,0-0.4c0.4,0,0.9,0,1.3,0c0.3,0,0.8,0,1,0
		c0.1,0,0.1,0.3,0,0.4H156c-0.4,0.1-0.6,0.3-0.9,1c-0.4,0.9-1.3,2.9-1.7,3.8c-0.3,0.6-0.4,1-0.6,1.5h-0.1h-0.1
		c-0.1-0.3-0.4-1.2-0.8-1.9l-0.8-1.9c-0.1-0.3-0.4-0.9-0.4-0.9s-0.3,0.6-0.4,0.9l-0.9,2c-0.3,0.8-0.6,1.3-0.8,1.8h-0.1h-0.1
		c-0.1-0.3-0.4-1-0.4-1.3L146.7,98.1z"/>
	<path d="M161.3,96.7c0.1,0.4,0.3,0.9,0.3,1.3c0,0.1-0.3,0.1-0.4,0c-0.3-0.8-0.8-1.2-1.5-1.2c-0.6,0-1,0.4-1,1c0,0.8,0.8,1,1.3,1.3
		c0.9,0.4,1.8,1,1.8,2.2c0,1.3-1.2,1.9-2.4,1.9c-0.8,0-1.3-0.1-1.8-0.4c-0.1-0.3-0.3-1.2-0.1-1.8c0.1-0.1,0.3-0.1,0.4,0
		c0.3,0.9,0.9,1.8,1.8,1.8c0.6,0,1.2-0.3,1.2-1s-0.8-1.2-1.3-1.5c-1-0.6-1.7-1.2-1.7-2c0-1.2,1-1.9,2.2-1.9
		C160.6,96.3,161.2,96.4,161.3,96.7z"/>
	<path d="M166.8,99c0.1,0.1,0.3,0.3,0.3,0.6c0,0.1,0,0.3-0.1,0.4l-4,0.4c-0.1-0.1-0.3-0.4-0.3-0.6s0-0.3,0.1-0.4L166.8,99z"/>
	<path d="M170.4,93.2c1.2-0.9,2.8-1.5,4.7-1.5c0.9,0,2.2,0.1,2.9,0.4c0.1,0,0.3,0.1,0.4,0c0,0.4,0.1,1.5,0.3,2.5
		c-0.1,0.1-0.3,0.1-0.4,0c-0.3-1.2-1-2.5-3.4-2.5c-2.5,0-4.8,1.7-4.8,5.3c0,3.6,2.2,5.5,5,5.5c2.2,0,3.1-1.5,3.6-2.4
		c0.1-0.1,0.4,0,0.4,0c-0.1,0.9-0.6,1.9-0.8,2.4c-0.1,0-0.4,0.1-0.6,0.1c-0.4,0.1-1.7,0.4-2.7,0.4c-1.5,0-2.9-0.3-4.2-1.2
		c-1.3-0.9-2.4-2.5-2.4-4.7C168.2,95.8,169.2,94,170.4,93.2z"/>
	<path d="M187,99.7c0,2-1.5,3.6-3.6,3.6c-1.9,0-3.4-1.3-3.4-3.4s1.7-3.7,3.6-3.7C185.4,96.3,187,97.7,187,99.7z M183.4,96.8
		c-1.2,0-1.9,1-1.9,2.9c0,1.5,0.8,3.3,2.2,3.3c1.5,0,1.9-1.5,1.9-2.8C185.5,98.6,184.9,96.8,183.4,96.8z"/>
	<path d="M198.3,98.8c0-1.2-0.4-1.8-1.7-1.8c-0.6,0-1.2,0.3-1.3,0.6c-0.1,0.3-0.3,0.4-0.3,1v2.5c0,1.2,0,1.3,0.6,1.5h0.3
		c0.1,0.1,0.1,0.4,0,0.4c-0.4,0-1,0-1.7,0c-0.6,0-1,0-1.5,0c-0.1,0-0.1-0.3,0-0.4h0.3c0.6-0.1,0.6-0.3,0.6-1.5v-2.5
		c0-1.2-0.4-1.8-1.5-1.8c-0.8,0-1.2,0.3-1.5,0.6c-0.1,0.1-0.3,0.4-0.3,0.9v2.7c0,1.2,0,1.3,0.6,1.5h0.3c0.1,0.1,0.1,0.4,0,0.4
		c-0.4,0-0.9,0-1.5,0c-0.6,0-1.2,0-1.7,0c-0.1,0-0.1-0.3,0-0.4h0.4c0.6-0.1,0.6-0.3,0.6-1.5V98c0-0.6,0-0.8-0.4-1l-0.1-0.1v-0.3
		c0.4-0.1,1.3-0.6,1.7-0.9c0,0,0.1,0,0.1,0.1c0,0.4,0,0.6,0,0.8c0,0.1,0,0.1,0.1,0.1c0.6-0.4,1.5-0.9,2.2-0.9c0.9,0,1.3,0.3,1.8,1
		c0.1,0,0.3,0,0.4-0.1c0.8-0.4,1.5-0.9,2.2-0.9c1.3,0,2,0.9,2,2v2.9c0,1.2,0,1.3,0.6,1.5h0.4c0.1,0.1,0.1,0.4,0,0.4
		c-0.6,0-1,0-1.7,0c-0.6,0-1,0-1.5,0c-0.1,0-0.1-0.3,0-0.4h0.3c0.6-0.1,0.6-0.3,0.6-1.5v-2L198.3,98.8L198.3,98.8z"/>
	<path d="M211.5,98.8c0-1.2-0.4-1.8-1.7-1.8c-0.6,0-1.2,0.3-1.3,0.6c-0.1,0.3-0.3,0.4-0.3,1v2.5c0,1.2,0,1.3,0.6,1.5h0.3
		c0.1,0.1,0.1,0.4,0,0.4c-0.4,0-1,0-1.7,0c-0.6,0-1,0-1.5,0c-0.1,0-0.1-0.3,0-0.4h0.3c0.6-0.1,0.6-0.3,0.6-1.5v-2.5
		c0-1.2-0.4-1.8-1.5-1.8c-0.8,0-1.2,0.3-1.5,0.6c-0.1,0.1-0.3,0.4-0.3,0.9v2.7c0,1.2,0,1.3,0.6,1.5h0.3c0.1,0.1,0.1,0.4,0,0.4
		c-0.4,0-0.9,0-1.5,0c-0.6,0-1.2,0-1.7,0c-0.1,0-0.1-0.3,0-0.4h0.4c0.6-0.1,0.6-0.3,0.6-1.5V98c0-0.6,0-0.8-0.4-1l-0.1-0.1v-0.3
		c0.4-0.1,1.3-0.6,1.7-0.9c0,0,0.1,0,0.1,0.1c0,0.4,0,0.6,0,0.8c0,0.1,0,0.1,0.1,0.1c0.6-0.4,1.5-0.9,2.2-0.9c0.9,0,1.3,0.3,1.8,1
		c0.1,0,0.3,0,0.4-0.1c0.8-0.4,1.5-0.9,2.2-0.9c1.3,0,2,0.9,2,2v2.9c0,1.2,0,1.3,0.6,1.5h0.4c0.1,0.1,0.1,0.4,0,0.4
		c-0.6,0-1,0-1.7,0c-0.6,0-1,0-1.5,0c-0.1,0-0.1-0.3,0-0.4h0.3c0.6-0.1,0.6-0.3,0.6-1.5v-2L211.5,98.8L211.5,98.8z"/>
	<path d="M222,99.7c0,2-1.5,3.6-3.6,3.6c-1.9,0-3.4-1.3-3.4-3.4s1.7-3.7,3.6-3.7C220.5,96.3,222,97.7,222,99.7z M218.3,96.8
		c-1.2,0-1.9,1-1.9,2.9c0,1.5,0.8,3.3,2.2,3.3c1.5,0,1.9-1.5,1.9-2.8C220.5,98.6,219.8,96.8,218.3,96.8z"/>
	<path d="M224.2,98.2c0-0.6,0-0.8-0.4-1l-0.1-0.1v-0.3c0.4-0.1,1.3-0.6,1.7-0.9c0,0,0.1,0,0.1,0.1c0,0.4,0,0.6,0,0.8
		c0,0.1,0,0.1,0.1,0.1c0.8-0.4,1.5-0.9,2.4-0.9c1.3,0,1.9,0.9,1.9,2v2.9c0,1.2,0,1.3,0.6,1.5h0.4c0.1,0.1,0.1,0.4,0,0.4
		c-0.4,0-1,0-1.7,0c-0.6,0-1.2,0-1.7,0c-0.1,0-0.1-0.3,0-0.4h0.3c0.6-0.1,0.6-0.3,0.6-1.5v-2.5c0-0.9-0.4-1.7-1.7-1.7
		c-0.6,0-1.2,0.3-1.5,0.6c-0.1,0.3-0.3,0.6-0.3,1v2.5c0,1.2,0,1.3,0.6,1.5h0.3c0.1,0.1,0.1,0.4,0,0.4c-0.4,0-0.9,0-1.5,0
		c-0.6,0-1.2,0-1.7,0c-0.1,0-0.1-0.3,0-0.4h0.3c0.6-0.1,0.6-0.3,0.6-1.5V98L224.2,98.2L224.2,98.2z"/>
	<path d="M232.7,98.1c-0.4-0.9-0.6-1.2-1-1.2h-0.3c-0.1-0.1-0.1-0.3,0-0.4c0.6,0,1,0,1.5,0c0.6,0,1,0,1.5,0c0.1,0,0.1,0.3,0,0.4
		h-0.4c-0.3,0-0.4,0.1-0.4,0.3s0.1,0.4,0.3,0.9l1,2.5c0.1,0.4,0.3,0.8,0.3,0.8s0.1-0.3,0.4-0.8l0.9-2c0.1-0.6,0.3-0.8,0.1-1
		c-0.1-0.4-0.4-0.4-0.8-0.6h-0.3c-0.1-0.1-0.1-0.3,0-0.4c0.4,0,0.9,0,1.3,0c0.6,0,1,0,1.7,0c0.1,0,0.1,0.3,0,0.4h-0.3
		c-0.8,0.1-0.6,0.1-0.4,0.8c0.1,0.7,1,2.7,1.3,3.1c0.1,0.3,0.1,0.4,0.1,0.4s0.1-0.1,0.3-0.4c0.1-0.4,0.9-2.2,1.2-2.9
		c0.1-0.4,0.1-0.6,0.1-0.8c0-0.1-0.1-0.1-0.3-0.1H240c-0.1-0.1-0.1-0.3,0-0.4c0.4,0,0.9,0,1.3,0c0.3,0,0.8,0,1,0
		c0.1,0,0.1,0.3,0,0.4h-0.3c-0.4,0.1-0.6,0.3-0.9,1c-0.4,0.9-1.3,2.9-1.7,3.8c-0.3,0.6-0.4,1-0.6,1.5h-0.1h-0.1
		c-0.1-0.3-0.4-1.2-0.8-1.9l-0.8-1.9c-0.1-0.3-0.4-0.9-0.4-0.9s-0.3,0.6-0.4,0.9l-0.9,2c-0.3,0.8-0.6,1.3-0.8,1.8h-0.1h-0.1
		c-0.1-0.3-0.4-1-0.4-1.3L232.7,98.1z"/>
	<path d="M244.9,98.8c-0.4,0-0.4,0-0.4,0.4c0,1.7,1,3.1,2.8,3.1c0.6,0,1-0.1,1.5-0.9c0.1,0,0.3,0,0.3,0.1c-0.6,1.2-1.8,1.7-2.7,1.7
		c-1,0-1.9-0.4-2.5-1.2c-0.4-0.6-0.8-1.5-0.8-2.2c0-2,1.3-3.8,3.4-3.8c1.5,0,2.4,1,2.4,2c0,0.3,0,0.4,0,0.4c0,0.1-0.3,0.1-1,0.1
		h-2.9L244.9,98.8L244.9,98.8z M245.9,98.2c1.2,0,1.7,0,1.8-0.1c0,0,0.1-0.1,0.1-0.3c0-0.4-0.3-1-1.3-1c-1,0-1.9,0.9-1.9,1.5
		c0,0,0,0.1,0.1,0.1h1.2L245.9,98.2L245.9,98.2z"/>
	<path d="M253.3,99.6c0.3-0.1,0.3-0.3,0.3-0.4v-0.8c0-0.6-0.1-1.5-1.2-1.5c-0.4,0-1,0.3-1,0.8c0,0.3,0,0.4-0.1,0.6
		c-0.3,0.1-0.8,0.3-0.9,0.3c-0.1,0-0.3-0.1-0.3-0.3c0-0.9,1.9-2,3.1-2s1.8,0.8,1.8,1.9l-0.1,2.9c0,0.8,0.1,1.5,0.8,1.5
		c0.1,0,0.3,0,0.4-0.1c0.1,0,0.1-0.1,0.1-0.1l0.1,0.1c0,0.1-0.6,0.8-1.5,0.8c-0.4,0-0.8-0.1-1-0.6c0-0.1-0.1-0.3-0.3-0.3
		c-0.1,0-0.3,0.1-0.6,0.3c-0.4,0.1-0.8,0.4-1.2,0.4c-0.4,0-0.9-0.1-1.2-0.4c-0.3-0.3-0.6-0.8-0.6-1.2c0-0.6,0.3-1,1.3-1.5
		L253.3,99.6z M252.3,102.5c0.3,0,0.9-0.3,1-0.4s0.1-0.4,0.1-0.8v-1c0-0.1,0-0.1-0.1-0.1c-0.1,0-0.4,0-0.8,0.1
		c-1,0.3-1.5,0.6-1.5,1.2C251.3,101.9,251.4,102.5,252.3,102.5z"/>
	<path d="M259,101.1c0,1.2,0,1.3,0.6,1.5h0.4c0.1,0.1,0.1,0.4,0,0.4c-0.6,0-1,0-1.7,0c-0.6,0-1.2,0-1.7,0c-0.1,0-0.1-0.3,0-0.4h0.4
		c0.6-0.1,0.6-0.3,0.6-1.5v-7.6c0-1,0-1-0.6-1.3L257,92c-0.1,0-0.1-0.3,0-0.3c0.4-0.1,1.2-0.4,1.8-0.8c0,0,0.1,0,0.1,0.1
		c0,0.4,0,1.3,0,2L259,101.1L259,101.1z"/>
	<path d="M263.5,97.2c-0.3,0-0.3,0-0.3,0.4v3.1c0,1,0.1,1.9,1.2,1.9c0.1,0,0.3,0,0.4-0.1c0.1,0,0.4-0.3,0.4-0.3
		c0.1,0,0.1,0.1,0.1,0.3c-0.3,0.3-0.9,0.8-1.8,0.8c-1.5,0-1.8-0.8-1.8-1.8v-3.8c0-0.4,0-0.4-0.3-0.4H261c-0.1,0-0.1-0.3,0-0.3
		c0.4-0.1,0.9-0.4,1-0.6c0.1-0.1,0.6-0.6,0.8-1c0.1,0,0.3,0,0.3,0.1v0.8c0,0.3,0,0.3,0.3,0.3h1.9c0.1,0.1,0.1,0.6,0,0.8
		C265.4,97.2,263.5,97.2,263.5,97.2z"/>
	<path d="M267.1,93.6c0-1,0-1-0.6-1.3l-0.1-0.1c-0.1,0-0.1-0.3,0-0.3c0.4-0.1,1.2-0.4,1.8-0.8c0,0,0.1,0,0.1,0.1c0,0.4,0,1.3,0,2
		v3.7c0,0.1,0,0.3,0,0.3c0.6-0.4,1.5-0.9,2.2-0.9c1.7,0,2.2,1,2.2,2.2v2.8c0,1.2,0,1.3,0.6,1.5h0.4c0.1,0.1,0.1,0.4,0,0.4
		c-0.6,0-1,0-1.7,0c-0.7,0-1.2,0-1.7,0c-0.1,0-0.1-0.3,0-0.4h0.3c0.6-0.1,0.6-0.3,0.6-1.5V99c0-1-0.6-1.8-1.7-1.8
		c-0.6,0-1,0.1-1.3,0.4S268,98,268,98.6v2.8c0,1.2,0,1.3,0.6,1.5h0.3c0.1,0,0.1,0.4,0,0.4c-0.4,0-1,0-1.7,0c-0.6,0-1.2,0-1.7,0
		c-0.1,0-0.1-0.3,0-0.4h0.4c0.6,0,0.6-0.3,0.6-1.5v-7.9L267.1,93.6L267.1,93.6z"/>
	<path d="M282.1,100.6c0,1.8,0,1.9,1.2,2h0.4c0.1,0.1,0,0.4,0,0.4c-0.9,0-1.5,0-2.2,0s-1.3,0-2,0c-0.1,0-0.1-0.3,0-0.4h0.3
		c1-0.1,1-0.3,1-2v-6.3c0-1.5,0-1.8-0.8-1.8h-0.6c-0.1-0.1-0.1-0.3,0-0.4c0.9-0.1,1.9-0.1,3.4-0.1c1.3,0,2.5,0.1,3.3,0.8
		c0.8,0.4,1.3,1.3,1.3,2.5c0,1.5-0.9,2.4-1.7,2.7s-1.7,0.4-2.4,0.4c-0.1,0-0.1-0.3,0-0.3c1.8-0.3,2.5-1.3,2.5-2.8
		c0-1.7-0.9-2.7-2.7-2.7c-0.9,0-0.9,0-0.9,0.6v7.5L282.1,100.6L282.1,100.6z"/>
	<path d="M290,100.6c0,1.2,0.3,1.9,1.7,1.9c0.4,0,1-0.1,1.3-0.4c0.1-0.1,0.3-0.4,0.3-1v-2.8c0-1-0.1-1.2-0.6-1.3l-0.1-0.1
		c-0.1,0-0.1-0.3,0-0.4c0.8,0,1.7-0.1,1.9-0.3c0.1,0,0.1,0,0.1,0.1c0,0.3,0,0.9,0,1.5v2.8c0,1.3,0,1.8,0.6,1.8c0.1,0,0.4,0,0.6-0.1
		c0.1,0.1,0.1,0.4,0,0.4c-0.6,0.1-1.7,0.3-2.2,0.6c-0.1,0-0.1,0-0.1-0.1v-0.8c0-0.1,0-0.3-0.1-0.3c-0.4,0.3-1.3,0.9-2.4,0.9
		c-1.5,0-2-0.8-2-2v-2.8c0-1,0-1.2-0.4-1.5l-0.1-0.1c-0.1-0.1-0.1-0.3,0-0.4c0.8,0,1.5-0.1,1.8-0.3c0.1,0,0.1,0,0.1,0.1
		c0,0.3,0,0.6,0,1.5v3.4H290V100.6z"/>
	<path d="M297.4,93.6c0-1,0-1-0.6-1.3l-0.1-0.1c-0.1,0-0.1-0.3,0-0.3c0.4-0.1,1.2-0.4,1.8-0.8c0,0,0.1,0,0.1,0.1c0,0.6,0,1.3,0,2
		v3.3c0,0.3,0,0.3,0.1,0.3c0.4-0.3,1.2-0.6,1.9-0.6c1.9,0,3.3,1.5,3.3,3.3c0,2.2-1.7,3.8-3.8,3.8c-0.6,0-1-0.1-1.5-0.1
		c-0.3-0.1-0.6-0.1-0.8-0.1c-0.1,0-0.3,0.1-0.3,0.3l0,0c0,0-0.1,0-0.1-0.1c0-0.3,0-0.6,0-1.5L297.4,93.6L297.4,93.6z M298.5,100.9
		c0,0.6,0.1,1.2,0.4,1.5c0.3,0.3,0.8,0.6,1.3,0.6c1.7,0,2.2-1.3,2.2-2.8c0-1.8-0.9-3.1-2.5-3.1c-0.4,0-0.9,0.1-1.2,0.3
		c-0.1,0.1-0.1,0.3-0.1,0.9v2.7C298.7,100.9,298.5,100.9,298.5,100.9z"/>
	<path d="M307.4,101.1c0,1.2,0,1.3,0.6,1.5h0.4c0.1,0.1,0.1,0.4,0,0.4c-0.6,0-1,0-1.7,0c-0.7,0-1.2,0-1.7,0c-0.1,0-0.1-0.3,0-0.4
		h0.4c0.6-0.1,0.6-0.3,0.6-1.5v-7.6c0-1,0-1-0.6-1.3l-0.1-0.1c-0.1,0-0.1-0.3,0-0.3c0.4-0.1,1.2-0.4,1.8-0.8c0,0,0.1,0,0.1,0.1
		c0,0.4,0,1.3,0,2L307.4,101.1L307.4,101.1z"/>
	<path d="M310.4,98.2c0-0.6,0-0.8-0.4-1l-0.1-0.1v-0.3c0.4-0.1,1.3-0.6,1.8-0.9c0.1,0,0.1,0,0.1,0.1c0,0.6,0,1.3,0,2v2.9
		c0,1.2,0,1.3,0.6,1.5h0.3c0.1,0.1,0.1,0.4,0,0.4c-0.4,0-1,0-1.7,0c-0.6,0-1.2,0-1.7,0c-0.1,0-0.1-0.3,0-0.4h0.3
		c0.6-0.1,0.6-0.3,0.6-1.5v-2.8L310.4,98.2L310.4,98.2z M311.9,92.7c0,0.6-0.4,0.9-0.9,0.9c-0.6,0-0.9-0.4-0.9-0.9
		c0-0.6,0.4-0.9,0.9-0.9C311.5,91.9,311.9,92.3,311.9,92.7z"/>
	<path d="M317.8,96.7c0.1,0.4,0.3,0.9,0.3,1.3c0,0.1-0.3,0.1-0.4,0c-0.3-0.8-0.8-1.2-1.5-1.2c-0.6,0-1,0.4-1,1c0,0.8,0.8,1,1.3,1.3
		c0.9,0.4,1.8,1,1.8,2.2c0,1.3-1.2,1.9-2.4,1.9c-0.8,0-1.3-0.1-1.8-0.4c-0.1-0.3-0.3-1.2-0.1-1.8c0.1-0.1,0.3-0.1,0.4,0
		c0.3,0.9,0.9,1.8,1.8,1.8c0.6,0,1.2-0.3,1.2-1s-0.8-1.2-1.3-1.5c-1-0.6-1.7-1.2-1.7-2c0-1.2,1-1.9,2.2-1.9
		C316.9,96.3,317.6,96.4,317.8,96.7z"/>
	<path d="M320,93.6c0-1,0-1-0.6-1.3l-0.1-0.1c-0.1,0-0.1-0.3,0-0.3c0.4-0.1,1.2-0.4,1.8-0.8c0,0,0.1,0,0.1,0.1c0,0.4,0,1.3,0,2v3.7
		c0,0.1,0,0.3,0,0.3c0.6-0.4,1.5-0.9,2.2-0.9c1.7,0,2.2,1,2.2,2.2v2.8c0,1.2,0,1.3,0.6,1.5h0.4c0.1,0.1,0.1,0.4,0,0.4
		c-0.6,0-1,0-1.7,0c-0.6,0-1.2,0-1.7,0c-0.1,0-0.1-0.3,0-0.4h0.3c0.6-0.1,0.6-0.3,0.6-1.5V99c0-1-0.6-1.8-1.7-1.8
		c-0.6,0-1,0.1-1.3,0.4c-0.3,0.3-0.3,0.3-0.3,0.9v2.8c0,1.2,0,1.3,0.6,1.5h0.3c0.1,0,0.1,0.4,0,0.4c-0.4,0-1,0-1.7,0
		c-0.6,0-1.2,0-1.7,0c-0.1,0-0.1-0.3,0-0.4h0.4c0.6,0,0.6-0.3,0.6-1.5v-7.9L320,93.6L320,93.6z"/>
	<path d="M329,98.2c0-0.6,0-0.8-0.4-1l-0.1-0.1v-0.3c0.4-0.1,1.3-0.6,1.8-0.9c0.1,0,0.1,0,0.1,0.1c0,0.6,0,1.3,0,2v2.9
		c0,1.2,0,1.3,0.6,1.5h0.3c0.1,0.1,0.1,0.4,0,0.4c-0.4,0-1,0-1.7,0c-0.6,0-1.2,0-1.7,0c-0.1,0-0.1-0.3,0-0.4h0.3
		c0.6-0.1,0.6-0.3,0.6-1.5v-2.8L329,98.2L329,98.2z M330.4,92.7c0,0.6-0.4,0.9-0.9,0.9c-0.6,0-0.9-0.4-0.9-0.9
		c0-0.6,0.4-0.9,0.9-0.9C330,91.9,330.4,92.3,330.4,92.7z"/>
	<path d="M333.3,98.2c0-0.6,0-0.8-0.4-1l-0.1-0.1v-0.3c0.4-0.1,1.3-0.6,1.7-0.9c0,0,0.1,0,0.1,0.1c0,0.4,0,0.6,0,0.8
		c0,0.1,0,0.1,0.1,0.1c0.8-0.4,1.5-0.9,2.4-0.9c1.3,0,1.9,0.9,1.9,2v2.9c0,1.2,0,1.3,0.6,1.5h0.4c0.1,0.1,0.1,0.4,0,0.4
		c-0.4,0-1,0-1.7,0c-0.7,0-1.2,0-1.7,0c-0.1,0-0.1-0.3,0-0.4h0.3c0.6-0.1,0.6-0.3,0.6-1.5v-2.5c0-0.9-0.4-1.7-1.7-1.7
		c-0.6,0-1.2,0.3-1.5,0.6c-0.1,0.3-0.3,0.6-0.3,1v2.5c0,1.2,0,1.3,0.6,1.5h0.3c0.1,0.1,0.1,0.4,0,0.4c-0.4,0-0.9,0-1.5,0
		c-0.6,0-1.2,0-1.7,0c-0.1,0-0.1-0.3,0-0.4h0.3c0.6-0.1,0.6-0.3,0.6-1.5V98L333.3,98.2L333.3,98.2z"/>
	<path d="M348.2,96.9c0.1,0.1,0.1,0.6-0.1,0.8h-1.2c0,0.3,0,0.6,0,0.9c0,1.2-0.8,2.7-2.8,2.7c-0.3,0-0.6,0-0.8,0
		c-0.1,0.1-0.8,0.4-0.8,0.9c0,0.4,0.4,0.8,1.2,0.8c0.6,0,1.3,0,2,0c0.9,0,2.4,0.1,2.4,1.9c0,1.8-2,3.3-4.2,3.3c-2,0-2.8-1.2-2.8-1.9
		c0-0.3,0-0.4,0.1-0.6c0.3-0.3,0.8-0.8,1.2-1.2c0.1-0.1,0.3-0.3,0.1-0.4c-0.6-0.1-1.2-0.8-1.2-1.3c0-0.1,0-0.1,0.3-0.3
		c0.3-0.1,0.6-0.4,0.9-0.8c0.1-0.1,0.1-0.3,0.1-0.3c-0.6-0.3-1.3-0.9-1.3-2c0-1.5,1.2-2.5,2.8-2.5c0.6,0,1.2,0.1,1.7,0.3
		c0.6,0.3,0.6,0.3,1,0.3h1.2L348.2,96.9L348.2,96.9z M344.6,103.7c-0.6,0-1.2,0-1.5,0.1c-0.4,0.3-0.8,0.8-0.8,1.5
		c0,0.9,0.8,1.7,2.2,1.7c1.5,0,2.5-0.9,2.5-1.8c0-1-0.8-1.5-1.9-1.5H344.6z M345.7,98.8c0-1.2-0.4-2-1.5-2c-0.8,0-1.5,0.8-1.5,1.9
		c0,1.2,0.8,1.9,1.5,1.9C345.3,100.6,345.7,99.9,345.7,98.8z"/>
	<path d="M363.5,101.4c0,0.8,0.1,1,0.4,1.2v0.1c-0.1,0-0.4,0-0.9,0.1c-0.9,0.3-2,0.4-2.9,0.4c-2,0-3.8-0.6-5.3-1.9
		c-1-1-1.5-2.4-1.5-3.8s0.4-2.8,1.5-4c1.2-1.2,2.8-1.9,5.4-1.9c0.9,0,1.9,0.1,2,0.3c0.3,0,0.9,0.1,1,0.1c0,0.6,0.1,1.5,0.3,2.5
		c0,0.1-0.3,0.1-0.4,0c-0.4-1.8-1.8-2.4-3.4-2.4c-3.3,0-4.8,2.4-4.8,4.9c0,3.3,1.7,5.8,5,5.8c1,0,1.7-0.1,1.9-0.4
		c0.1-0.1,0.1-0.4,0.1-0.9v-0.8c0-1.5,0-1.5-1-1.7l-0.9-0.1c-0.1,0-0.1-0.4,0-0.4c0.4,0,1.5,0,2.4,0c0.6,0,1.2,0,1.8,0
		c0.1,0,0.1,0.3,0,0.4h-0.3c-0.8,0.1-0.8,0.6-0.8,1.5v0.9h0.1v0H363.5z"/>
	<path d="M366.3,98.2c0-0.6,0-0.8-0.4-1l-0.1-0.1v-0.3c0.4-0.1,1.3-0.6,1.8-0.9c0.1,0,0.1,0,0.1,0.1v1c0,0.1,0,0.1,0,0.1
		c0.6-0.4,1.2-1,1.9-1c0.4,0,0.8,0.3,0.8,0.8c0,0.6-0.4,0.8-0.8,0.8c-0.1,0-0.3,0-0.4-0.1c-0.3-0.1-0.4-0.3-0.8-0.3
		c-0.3,0-0.4,0.1-0.6,0.3c-0.1,0.3-0.1,0.8-0.1,1.3v2.2c0,1.2,0,1.5,0.8,1.5h0.6c0.1,0.1,0.1,0.4,0,0.4c-0.8,0-1.3,0-1.9,0
		c-0.6,0-1.2,0-1.5,0c-0.1,0-0.1-0.3,0-0.4h0.3c0.6-0.1,0.6-0.3,0.6-1.5v-2.8L366.3,98.2L366.3,98.2z"/>
	<path d="M378,99.7c0,2-1.5,3.6-3.6,3.6c-1.9,0-3.4-1.3-3.4-3.4s1.7-3.7,3.6-3.7C376.3,96.3,378,97.7,378,99.7z M374.2,96.8
		c-1.2,0-1.9,1-1.9,2.9c0,1.5,0.8,3.3,2.2,3.3c1.5,0,1.9-1.5,1.9-2.8C376.5,98.6,375.8,96.8,374.2,96.8z"/>
	<path d="M381.2,100.6c0,1.2,0.3,1.9,1.7,1.9c0.4,0,1-0.1,1.3-0.4c0.1-0.1,0.3-0.4,0.3-1v-2.8c0-1-0.1-1.2-0.6-1.3l-0.1-0.1
		c-0.1,0-0.1-0.3,0-0.4c0.8,0,1.7-0.1,1.9-0.3c0.1,0,0.1,0,0.1,0.1c0,0.3,0,0.9,0,1.5v2.8c0,1.3,0,1.8,0.6,1.8c0.1,0,0.4,0,0.6-0.1
		c0.1,0.1,0.1,0.4,0,0.4c-0.6,0.1-1.7,0.3-2.2,0.6c-0.1,0-0.1,0-0.1-0.1v-0.8c0-0.1,0-0.3-0.1-0.3c-0.4,0.3-1.3,0.9-2.4,0.9
		c-1.5,0-2-0.8-2-2v-2.8c0-1,0-1.2-0.4-1.5l-0.1-0.1c-0.1-0.1-0.1-0.3,0-0.4c0.8,0,1.5-0.1,1.8-0.3c0.1,0,0.1,0,0.1,0.1
		c0,0.3,0,0.6,0,1.5v3.4h-0.3V100.6z"/>
	<path d="M388.5,98.2c0-0.6,0-0.8-0.4-1l-0.1-0.1v-0.3c0.4-0.1,1.2-0.6,1.7-0.9c0.1,0,0.1,0,0.1,0.1c0,0.3,0,0.6,0,0.8
		c0,0.1,0,0.1,0.1,0.1c0.1-0.1,1.3-0.8,2.4-0.8c1.7,0,2.8,1.3,2.8,3.1c0,2.4-1.8,4-4.2,4c-0.3,0-0.8,0-0.9,0c-0.1,0-0.3,0.1-0.3,0.4
		v1.8c0,1.2,0,1.3,0.6,1.5l0.6,0.1c0.1,0.1,0.1,0.4,0,0.4c-0.8,0-1.3,0-1.9,0c-0.6,0-1.2,0-1.7,0c-0.1,0-0.1-0.3,0-0.4h0.3
		c0.6-0.1,0.6-0.3,0.6-1.5v-7.5L388.5,98.2L388.5,98.2z M390,101.5c0,0.6,0.1,0.8,0.4,1c0.3,0.3,0.9,0.4,1.2,0.4
		c1.3,0,2.2-1.3,2.2-2.9c0-1.3-0.8-2.7-2.2-2.7c-0.8,0-1.2,0.3-1.5,0.4c-0.1,0.1-0.1,0.4-0.1,1L390,101.5L390,101.5z"/>
</g>
<g>
	<g>
		<g>
			<g>
				<defs>
					<rect id="SVGID_9_" x="10" y="16.4" width="415" height="100"/>
				</defs>
				<clipPath id="SVGID_10_">
					<use xlink:href="#SVGID_9_"  style="overflow:visible;"/>
				</clipPath>
				<path class="st4" d="M151.4,29.9c0.1,0.6,0.3,1.3,0,1.9l-1,1c-1.8,0.6-3.6,1.2-5.3,1.9c-1.3,0.8-3.1,0.8-4.7,1.2
					c-2.4,0.3-4.5,1-6.7,1.5c-1.5,0.3-2.9,0.1-4-0.8c-0.6-0.6-0.9-1.7-0.8-2.5c0.8-0.6,2-0.1,2.9-0.4c0.6-0.3,1.3,0,2-0.1
					c0.8-0.8,1.8-0.9,2.8-1.3l3.7-0.3c1.8-1,3.8-1.8,5.7-3.1C147.9,28.4,150,28.4,151.4,29.9"/>
			</g>
		</g>
	</g>
	<g>
		<g>
			<g>
				<defs>
					<rect id="SVGID_11_" x="10" y="16.4" width="415" height="100"/>
				</defs>
				<clipPath id="SVGID_12_">
					<use xlink:href="#SVGID_11_"  style="overflow:visible;"/>
				</clipPath>
				<path class="st5" d="M229.4,29.4l0.3,0.3l-0.4,1.8c0.4,0.4,0.8,1.2,0.3,1.7c-0.8,0.3-1.3,0.8-2,1c-0.8,0.3-1.2,0.9-1.9,1
					c-0.9,0.6-1.9,0.6-2.9,0.3c-2,0.6-3.6-0.9-4.9-2.2c-0.1-0.4,0.3-0.9,0.6-1c0.8-0.3,1-1,1.8-1.3l1.9-1.2c1,0.1,1.9-0.4,2.8-0.6
					c0.6,0,1.2,0,1.7-0.3C227.8,28.9,228.4,29.5,229.4,29.4"/>
			</g>
		</g>
	</g>
	<g>
		<g>
			<g>
				<defs>
					<rect id="SVGID_13_" x="10" y="16.4" width="415" height="100"/>
				</defs>
				<clipPath id="SVGID_14_">
					<use xlink:href="#SVGID_13_"  style="overflow:visible;"/>
				</clipPath>
				<path class="st6" d="M143.9,41.7c0.4,0.8,0.3,1.8,1.3,2c1.5,0.1,2.7-0.8,3.8-1.9c0.9-0.4,1.8-1.2,2.9-0.9c0.9,0.3,2,0.3,2.5,1.3
					c0.6,1-0.3,2-0.9,2.8c-1.8,1-3.7,2-5.7,2.9c-0.4,0.3-0.9,0.6-1,1.2c-0.3,1.5,0.8,2.5,1.7,3.6c1.3,0.8,2.4,2,3.4,3.1
					c0.6,1.2,1.9,2,2.2,3.4c1.3,1.2,2.7,2.4,4.2,3.4c1.3,0.8,2.8,1.7,4.2,2.7h0.6l3.7,2.2c1.7,0.3,2.8,1.7,3.8,2.8
					c0,0.4-0.3,0.9-0.6,1.3c-0.6,0.3-1.3,0.6-2,0.6l-3.6,0.3c-1.3,0-2.7,0.1-4,0.1c-1.5-0.3-3.1,0.3-4.5-0.6l-3.7-3.1
					c-2.5-3.6-4.7-7.5-7.2-11.2c-0.4-1.3-1.5-2.8-2.8-3.4c-0.6-0.3-1.2,0.1-1.5,0.8c-0.4,1.7-0.4,3.3-0.8,4.9
					c-1.3,2.8-2.4,5.7-4.7,8.1c-0.9,1.2-2,1.8-3.1,2.7c-1.3,0.4-2.7,1-4.2,0.9c-1.7-0.4-3.8-0.8-4-2.8c-0.6-0.6-0.1-1.7-0.6-2.4
					c0.4-0.4,0.6-1.3,1.3-1.7h1.3c0.8,0.1,1.2,1,1.9,0.6c1.5-1.3,3.1-2.9,3.7-4.8c1.3-1.3,0.9-3.7,0.8-5.5c-0.8-1-1.7,0.1-2.7,0
					c-1.9-0.3-4-1-4.9-3.1c0.1-1.7,1.9-0.6,2.9-1c1.3-0.3,2.5-0.6,3.8-1.2c0.8-0.6,1.7-0.8,2.4-1.2c1.7-0.3,3.6-1.2,3.8-2.9
					c-0.3-1.8,0.4-3.1,0.6-4.8c0.6-1,1.8-0.9,2.7-1C142.4,40.3,143.5,40.5,143.9,41.7"/>
			</g>
		</g>
	</g>
	<g>
		<g>
			<g>
				<defs>
					<rect id="SVGID_15_" x="10" y="16.4" width="415" height="100"/>
				</defs>
				<clipPath id="SVGID_16_">
					<use xlink:href="#SVGID_15_"  style="overflow:visible;"/>
				</clipPath>
				<path class="st7" d="M195.7,36.5c1,0.3,2,0.6,2.8,1.5c0,1-0.4,2.4-1.7,2.9c-1.2,0.3-2.7,0.6-3.7-0.1c-1-0.4-2-1-3.4-0.9
					c-1.5,0.1-3.3,0.4-4.3,1.8c-0.4,1.3,0.1,2.8,0.1,4.2c-0.1,0.9,0,1.8,0,2.5c0.1,1.5,0.3,3.1,0.4,4.5c0,2.9-0.3,5.8,0.1,8.8
					c-0.4,0.8,0,1.5,0,2.2c0.1,1.9,1.3,3.7,0.8,5.8c-0.4,1.5-0.1,3.3-1.8,4.2c-0.9,0.6-1.9,1.2-3.3,0.9c-1.3,0-2.4-1.3-2.8-2.5
					l-0.3-1.9c0.1-1.2,0.4-2.4,0.6-3.7c0.3-3.7,1.2-7.3,1.2-11.3c0.4-2.4,0.3-5,0.6-7.6c0-1.5,0.3-2.9,0-4.5c-0.3-0.3-0.6-0.6-1-0.4
					c-0.4,0.3-1,0.3-1.7,0.6c-1.3,0.9-2.5,1.8-3.8,2.4c-1.7,1-3.1,2.2-5.3,1.9c-1,0.1-1.8-0.4-2.5-0.8c-1.2-0.6-2.5-1-3.7-1.8
					c-0.9-0.9-2-1.7-2.7-2.8c0.4-0.8,1.3-0.9,2.2-0.9l1.7-0.1c2.5,0.6,5-0.4,7.5-0.8c1.9-0.4,3.7-1.3,5.8-1.5c2-0.6,4.2-0.9,6.3-1.3
					c1.7-0.9,3.7-0.6,5.5-1.3C191.3,34.9,193.6,36.3,195.7,36.5"/>
			</g>
		</g>
	</g>
	<g>
		<g>
			<g>
				<defs>
					<rect id="SVGID_17_" x="10" y="16.4" width="415" height="100"/>
				</defs>
				<clipPath id="SVGID_18_">
					<use xlink:href="#SVGID_17_"  style="overflow:visible;"/>
				</clipPath>
				<path class="st8" d="M201.7,53.3c0.8,0.9,1.8,1.5,2,2.7c-0.1,1.3,0.1,2.8-0.9,3.8l-1.2,0.9c-1.3,0-2.5,0-3.7-0.4h-0.3
					c-1.5-1-1.7-2.7-2.8-3.8c-0.6-1.2-1.7-2.5-0.9-3.8c0.9-1.2,2.7-0.6,3.8-0.4C199.2,52.3,200.7,52.4,201.7,53.3"/>
			</g>
		</g>
	</g>
	<g>
		<g>
			<g>
				<defs>
					<rect id="SVGID_19_" x="10" y="16.4" width="415" height="100"/>
				</defs>
				<clipPath id="SVGID_20_">
					<use xlink:href="#SVGID_19_"  style="overflow:visible;"/>
				</clipPath>
				<path class="st9" d="M227.2,46.7c0,1.3-0.8,2.4-0.9,3.7c-0.6,0.8-0.9,1.8-1,2.7c-0.1,0.3-0.6,0.4-0.8,0.4
					c-1.3-0.4-2.5-1.3-3.7-2c-0.3-0.3-1-0.8-0.6-1.3c1.8-1.9,3.8-3.8,5.7-5.7c0.6-0.8,1.3-1,2-1.5l0.3,0.3
					C227.8,44.4,227.9,45.7,227.2,46.7 M252.2,69.2c-0.4-0.6-1.2-0.9-1.9-0.8c-1-0.4-1.9-1.2-2.9-1.3c-1.7-1-3.6-1.5-5.4-2.4
					c-2.7-0.9-5-2-7.3-3.7c-1.2-0.8-2.4-1.8-3.6-2.7c-0.3-0.4-0.8-0.8-0.8-1.2c0.6-2,0.9-4.3,1.5-6.3l0.8-3.1c0.6-1,0.3-2.4,0.8-3.3
					c0-1.3,0.9-2,0.8-3.4c0.1-0.6,0.8-1.2,1.5-1.3c0.6-0.6,1.2-0.9,1.9-0.9c0.6-0.6,1.3-0.6,1.9-1.3c0.4-1-1.5-1-1-2.2
					c0-0.3-0.4-0.6-0.8-0.6c-1.3,0.1-2.4,0.4-3.6,0.6c-0.4,0.3-0.8,0.6-1.3,0.6c-0.9,0.4-1.5,1.3-2.4,1.8c-1.3,2.5-4.2,2.8-5.9,4.8
					c-1,0.3-1.8,1-2.7,1.7c-2.8,1.9-5.7,4-8.6,5.5c-1,0.4-2,1.3-3.3,1.7c-0.9,0.6-1.7-0.1-2.5-0.4c-0.8,0.3-0.1,1-0.4,1.8
					c0.3,0.4,0.4,1,0.8,1.5c1.7,1.8,3.7,3.7,6.3,2.8c0.8-0.8,1.7-0.9,2.2-1.7c0.8-0.3,1.2-1.3,2-1.3c1.3,1.2,2.8,2,4,3.6
					c0.4,0.8,0,1.5-0.3,2c-2,2.2-4.7,4-7.2,5.3l-2.2,0.4c-0.9,0.1-2,0.4-2.8-0.1c-0.9-0.3-1-1.2-0.9-2h-0.1c-0.3,0.3-0.4,1-0.3,1.5
					c-0.1,0.6-1,0.8-1.2,1.3c0.6,0.3,0.8,1,1.3,1.3c1,0.4,1.8,1.7,2.2,2.5c0.9,0.8,2,1.2,3.3,1c1,0.1,2-0.3,3.1-0.3
					c1.3-0.4,2.4-1.2,3.6-1.7c2.4-1,4-3.4,6.3-5.3h0.4c1.5,0.6,2.4,2.4,3.6,3.6c1.5,1.8,2.9,4,5.3,4.7c1.2,0.8,2.7,0.3,3.8,0.3
					c0.9-0.1,1.8-0.6,2.7-0.3c0.9-0.4,2-0.4,3.1-0.4c0.9-0.3,1.7-0.8,2.7-0.6c1-0.3,2.5,0,3.4-0.8C252.2,70.1,252.4,69.5,252.2,69.2
					"/>
			</g>
		</g>
	</g>
	<g>
		<g>
			<g>
				<defs>
					<rect id="SVGID_21_" x="10" y="16.4" width="415" height="100"/>
				</defs>
				<clipPath id="SVGID_22_">
					<use xlink:href="#SVGID_21_"  style="overflow:visible;"/>
				</clipPath>
				<path class="st10" d="M287.6,37.2c0.6,0.8,1.5,0.8,1.8,1.7c0.4,1,1.7,1.9,1.3,3.3c-0.3,0.8-0.4,1.5-1.2,1.9
					c-0.6,1.3-1.7,2.7-2.9,3.4c-0.4,0.9-1,1.8-1.9,2.4c-1.5,2.5-4.2,4-6.4,5.8c-0.8,0.6-2.4,1.2-2,2.5c-0.1,1.7-0.4,3.1-0.4,4.8
					c0,1.7-0.1,3.6,1.3,4.7c2.5,2,6.3,0.8,9.1,0.1c2.7-1.7,6.4-3.7,7.1-7.2c-0.1-0.8,0.6-1.2,0.9-1.7c0.1-1.3,0.4-2.8,0.9-4.2
					c0.8,0.3,0.1,1.2,0.4,1.7c0.3,0.9,0.3,1.7,0.8,2.5c0,0.8,0.1,1.7,0.4,2.4c0.3,0.9,0.3,1.8,0.9,2.5c0,0.8,0.6,1,0.9,1.7
					c-0.1,0.4-0.1,0.9-0.1,1.3l-0.6,1.2c-0.9,0.6-1.7,1.2-2.7,1.3c-1.3,0.8-2.8,1-4.2,1.7c-0.9,0.4-1.9,0.3-2.8,0.8
					c-1.2,0.1-2,0.3-3.3,0.3c-0.8,0-1.5-0.1-2.2,0c-3.1,0-6.3-0.4-8.8-2c-1.3-0.9-1.7-2.4-2-3.6c0-0.9-0.1-1.9-0.4-2.8
					c0-1.7,0.1-3.3-0.3-4.8c-0.6-0.9-1.8-0.4-2.5-0.9c-0.6-0.8-1.8-0.6-1.8-1.7c0.6-0.3,1.2,0.1,1.8,0c0.8-0.4,1.9,0.3,2.4-0.9
					c0.3-1,0-2,0-2.9l0.1-3.1c-0.6-0.6,0.3-1.3,0.1-2c-0.3-1.8,0.3-3.7,0-5.5c-0.1-1.5,0-3.3-1.7-4c-0.4,0-0.9-0.1-1-0.6
					c0.1-0.4,0.8-0.6,1-0.8c0.6,0.4,1.7-0.3,1.9,0.6c0.3,1.7,2,0.9,2.5,2.2c1.2,2.4,1.8,5,1.7,8c0,0.9,0,1.9,0.1,2.8
					c0.1,0.4,0.8,0.4,1,0.3c2.2-1.7,3.4-3.8,5.3-5.7c0.8-0.9,1.7-1.7,1.8-2.5c0.9-0.9,1-2,0.9-3.3c-0.6-0.4-1.2-1-1.8-1.2
					c-0.3-0.1-0.3-0.4,0-0.6c0.9-0.9,2.4-0.1,3.4-0.8C287.4,35.8,287.4,36.6,287.6,37.2"/>
			</g>
		</g>
	</g>
	<g>
		<g>
			<g>
				<defs>
					<rect id="SVGID_23_" x="10" y="16.4" width="415" height="100"/>
				</defs>
				<clipPath id="SVGID_24_">
					<use xlink:href="#SVGID_23_"  style="overflow:visible;"/>
				</clipPath>
				<path class="st11" d="M262.7,40.4l0.1,0.9c1,1.2,2.2,2.2,2.9,3.4c0.8,1.2-1.2,1.7-1.5,2.7c-1.8,2.7-4.5,4.8-6.4,7.3
					c-0.1,1.2,0.9,1.8,0.9,2.8c1.2,1,1.5,2.5,2,3.7c0.3,1.8,1,3.8,0.4,5.8c0.3,0.9-0.3,1.7-0.4,2.5c-0.8,0.4-0.8,1.7-1.8,1.5
					c-1.3,0.3-1.7-1.3-2.2-2c0-0.6-0.8-0.9-1-1.5c-0.3-1.8,0.4-3.7,0.3-5.5c0-1,0.1-2-0.1-2.9c0-0.6,0-1.2-0.4-1.7
					c-0.3-0.3-0.8-0.3-1.2-0.3c-1.3,0.8-2.7,1.7-3.8,2.7l-1.9,0.6l-1.7-0.8c0-0.6,0.8-0.3,1-0.8c1.3-1,2.7-2.4,3.8-3.7
					c2.5-3.6,5.4-7.1,7.6-10.5c0.3-1,1.7-1.9,0.9-3.3c0.1-0.9-1.5-1.5-0.9-2.4C260.7,39.1,262,39.3,262.7,40.4"/>
			</g>
		</g>
	</g>
</g>
<line class="st12" x1="74" y1="82.8" x2="399.6" y2="82.8"/>
<g>
	<g>
		<g>
			<g>
				<defs>
					<rect id="SVGID_25_" x="13" y="16.4" width="415" height="100"/>
				</defs>
				<clipPath id="SVGID_26_">
					<use xlink:href="#SVGID_25_"  style="overflow:visible;"/>
				</clipPath>
				<line class="st13" x1="13" y1="82.8" x2="34" y2="82.8"/>
			</g>
		</g>
	</g>
</g>
</svg>
